<svg xmlns="http://www.w3.org/2000/svg" viewBox="0 0 64 64" width="64" height="64">
  <path fill="#666" d="M58 30H5c-1.1 0-2-.9-2-2V6c0-1.1.9-2 2-2h53c1.1 0 2 .9 2 2v22c0 1.1-.9 2-2 2z" />
  <path fill="#fff" d="M7.2 8H56v18H7.2z" id="Calque_7"/>
  <path fill="#fff" d="M3 35h57v24H3z" id="Calque_8"/>
  <path fill="#1d83d4" d="M3 35h6v6H3zM13.2 35h6v6h-6zM23.4 35h6v6h-6zM33.6 35h6v6h-6zM54 35h6v6h-6zM54 44h6v6h-6zM3 44h6v6H3zM43.8 35h6v6h-6zM3 53h6v6H3zM13.2 53h6v6h-6zM23.4 53h6v6h-6zM33.6 53h6v6h-6zM54 53h6v6h-6zM43.8 53h6v6h-6z"/>
</svg>
