<svg xmlns="http://www.w3.org/2000/svg" viewBox="0 0 64 64" width="64" height="64">
  <path fill="#666" d="m7.987 46.464 24.55-42.52 2.165 1.25-24.55 42.52z"/>
  <path fill="#666" d="M7.5 43.1h49.1v2.5H7.5z"/>
  <path fill="#666" d="m8.44 44.457 1.25-2.165 24.508 14.15-1.25 2.165zM29.785 7.56l1.25-2.165 24.507 14.15-1.25 2.165z"/>
  <path fill="#666" d="m8.48 19.535 24.508-14.15 1.25 2.166L9.73 21.7z"/>
  <path fill="#666" d="m29.298 5.227 2.165-1.25 24.55 42.52-2.165 1.25zM9.4 17.8h2.5v28.3H9.4z"/>
  <path fill="#666" d="M52.1 17.8h2.5v28.3h-2.5z"/>
  <path fill="#666" d="m31.424 55.721 21.39-12.35 1.1 1.905-21.39 12.35z"/>
  <path fill="#666" d="M58 47c-1.5 2.6-4.7 3.4-7.3 2-2.6-1.5-3.4-4.7-2-7.3 1.5-2.6 4.7-3.4 7.3-2 2.6 1.5 3.5 4.7 2 7.3M15.3 22.3c-1.5 2.6-4.7 3.4-7.3 2-2.6-1.5-3.4-4.7-2-7.3s4.7-3.4 7.3-2c2.6 1.5 3.5 4.8 2 7.3M6 47c-1.5-2.6-.6-5.8 2-7.3s5.8-.6 7.3 2 .6 5.8-2 7.3c-2.5 1.4-5.8.6-7.3-2M48.7 22.3c-1.5-2.6-.6-5.8 2-7.3s5.8-.6 7.3 2 .6 5.8-2 7.3c-2.5 1.5-5.8.6-7.3-2M32 62c-3 0-5.3-2.4-5.3-5.3 0-3 2.4-5.3 5.3-5.3s5.3 2.4 5.3 5.3S35 62 32 62M32 12.7c-3 0-5.3-2.4-5.3-5.3S29 2 32 2s5.3 2.4 5.3 5.3-2.3 5.4-5.3 5.4"/>
</svg>
