<svg viewBox="0 0 512 512" xmlns="http://www.w3.org/2000/svg" width="64" height="64">
  <path d="M384.7 342.8H437a30.2 30.2 0 0030.2-30.3v-3.7a30.2 30.2 0 00-30.2-30.3h-52.3z" fill="#f3e3e3"/>
  <path d="M306 512H206a97.2 97.2 0 01-97.2-97.2v-185a97.2 97.2 0 0197.2-97.2h100a97.2 97.2 0 0197.2 97.2v185A97.2 97.2 0 01306 512z" fill="#f3e3e3"/>
  <path d="M127.3 342.8H75a30.2 30.2 0 01-30.2-30.3v-3.7A30.2 30.2 0 0175 278.5h52.3v64.3z" fill="#f3e3e3"/>
  <path d="M363.7 266.3H148.2a53 53 0 01-53-53v-21.4h321.6v21.4a53 53 0 01-53 53z" fill="#E895B7"/>
  <path d="M304 0h-96A112.8 112.8 0 0095.2 112.8v79h321.6v-79C416.8 50.5 366.3 0 304 0z" fill="#F43737"/>
  <g fill="#555">
    <path d="M424.6 262.2h-15v-8c8-10.7 12.7-24 12.7-38.4V121C422.3 54.3 368 0 301.2 0h-90.4A121.3 121.3 0 0089.7 121.1v94.7c0 14.4 4.7 27.8 12.7 38.5v8h-15a45.3 45.3 0 000 90.4h15v47c0 62 50.3 112.3 112.2 112.3h82.8c61.9 0 112.2-50.3 112.2-112.2v-47.1h15a45.3 45.3 0 000-90.5zm-322.2 60.5h-15a15.2 15.2 0 010-30.5h15v30.5zm277.2 77a82.3 82.3 0 01-82.2 82.3h-82.8a82.3 82.3 0 01-82.2-82.2v-123c7 2.5 14.4 3.9 22.1 3.9h203c7.7 0 15.2-1.4 22.1-4zm12.7-184a35 35 0 01-34.9 35H154.5a35 35 0 01-34.8-35v-5h272.6zm0-35H119.7V121A91.3 91.3 0 01210.8 30h90.4a91.3 91.3 0 0191.1 91.1v59.5zm32.3 142h-15v-30.5h15a15.2 15.2 0 010 30.5z"/>
    <path d="M306.3 397a15 15 0 00-20.3 6.3 33.8 33.8 0 01-60 0 15 15 0 00-26.6 14 63.7 63.7 0 00113.2 0 15 15 0 00-6.3-20.3z"/>
    <path fill="#fff" d="M 286.135 143.566 C 280.466 120.887 256.872 123.265 253.123 107.993 C 250.471 97.202 257.695 88.972 268.486 86.229 C 275.753 84.42 283.425 86.777 288.422 92.356 L 288.513 92.447 L 288.97 92.996 L 289.245 93.361 L 289.519 93.819 L 289.61 93.91 C 290.616 95.19 291.165 96.105 291.988 95.922 C 292.72 95.739 293.085 94.093 293.268 92.904 C 297.087 62.926 269.531 38.506 240.229 45.9 C 217.244 51.788 203.265 75.06 208.862 98.117 C 216.452 129.117 245.624 134.33 261.445 142.194 C 270.371 146.374 271.425 158.648 263.343 164.288 C 262.023 165.209 260.542 165.873 258.975 166.245 L 258.793 166.245 L 258.152 166.428 C 256.781 166.794 256.415 166.611 256.415 167.16 C 256.415 167.525 257.329 167.983 257.878 168.257 C 272.892 174.319 288.838 161.854 286.58 145.821 C 286.473 145.062 286.325 144.31 286.135 143.566 Z" />
  </g>
</svg>
