<svg xmlns="http://www.w3.org/2000/svg" width="64" height="64" viewBox="0 0 24 24" stroke="#444" stroke-width="1.125" stroke-linecap="round" stroke-linejoin="round" fill="none" color="#444"><title>Apps drawer</title><path style="line-height:normal;font-variant-ligatures:normal;font-variant-position:normal;font-variant-caps:normal;font-variant-numeric:normal;font-variant-alternates:normal;font-variant-east-asian:normal;font-feature-settings:normal;font-variation-settings:normal;text-indent:0;text-align:start;text-decoration-line:none;text-decoration-style:solid;text-decoration-color:#000;text-transform:none;text-orientation:mixed;shape-padding:0;shape-margin:0;inline-size:0;isolation:auto;mix-blend-mode:normal" d="M8.457 2.625a2.305 2.305 0 0 0-2.289 2.288 2.305 2.305 0 0 0 2.289 2.288 2.305 2.305 0 0 0 2.288-2.288 2.305 2.305 0 0 0-2.288-2.288zm7.086 0a2.305 2.305 0 0 0-2.288 2.288 2.305 2.305 0 0 0 2.288 2.288 2.305 2.305 0 0 0 2.289-2.288 2.305 2.305 0 0 0-2.289-2.288zM8.457 9.712A2.305 2.305 0 0 0 6.168 12a2.305 2.305 0 0 0 2.289 2.288A2.305 2.305 0 0 0 10.745 12a2.305 2.305 0 0 0-2.288-2.288zm7.086 0A2.305 2.305 0 0 0 13.255 12a2.305 2.305 0 0 0 2.288 2.288A2.305 2.305 0 0 0 17.832 12a2.305 2.305 0 0 0-2.289-2.288zm-7.086 7.087a2.305 2.305 0 0 0-2.289 2.288 2.305 2.305 0 0 0 2.289 2.288 2.305 2.305 0 0 0 2.288-2.288 2.305 2.305 0 0 0-2.288-2.288zm7.086 0a2.305 2.305 0 0 0-2.288 2.288 2.305 2.305 0 0 0 2.288 2.288 2.305 2.305 0 0 0 2.289-2.288 2.305 2.305 0 0 0-2.289-2.288z" font-weight="400" font-family="sans-serif" white-space="normal" overflow="visible" fill="#444" stroke="none"/></svg>