<svg xmlns="http://www.w3.org/2000/svg" width="64" height="64" viewBox="0 0 24 24" stroke="#444" stroke-width="1.125" stroke-linecap="round" stroke-linejoin="round" fill="none" color="#444"><title>Edit</title><path style="line-height:normal;font-variant-ligatures:normal;font-variant-position:normal;font-variant-caps:normal;font-variant-numeric:normal;font-variant-alternates:normal;font-variant-east-asian:normal;font-feature-settings:normal;font-variation-settings:normal;text-indent:0;text-align:start;text-decoration-line:none;text-decoration-style:solid;text-decoration-color:#000;text-transform:none;text-orientation:mixed;shape-padding:0;shape-margin:0;inline-size:0;isolation:auto;mix-blend-mode:normal" d="M18.133.75c-.94 0-1.879.356-2.59 1.067l-1.948 1.949a1.17 1.17 0 0 0-.03.029 1.17 1.17 0 0 0-.07.073l-12.402 12.4a1.17 1.17 0 0 0-.343.825v4.989a1.17 1.17 0 0 0 1.17 1.17h4.988a1.17 1.17 0 0 0 .826-.344l12.443-12.443.024-.022a1.17 1.17 0 0 0 .005-.008 1.17 1.17 0 0 0 .07-.073l1.908-1.905a3.679 3.679 0 0 0 0-5.179l-1.461-1.461A3.651 3.651 0 0 0 18.133.75zm0 2.324c.337 0 .674.13.938.395l1.462 1.461a1.31 1.31 0 0 1 0 1.876L19.38 7.958l-3.337-3.337 1.152-1.152c.264-.264.602-.395.938-.395zm-3.741 3.198l3.337 3.338L6.423 20.913H3.09v-3.335z" font-weight="400" font-family="sans-serif" white-space="normal" overflow="visible" fill="#444" stroke="none"/></svg>