<svg xmlns="http://www.w3.org/2000/svg" width="64" height="64" viewBox="0 0 24 24" stroke="#444" stroke-width="1.125" stroke-linecap="round" stroke-linejoin="round" fill="none" color="#444"><title>Close</title><path style="line-height:normal;font-variant-ligatures:normal;font-variant-position:normal;font-variant-caps:normal;font-variant-numeric:normal;font-variant-alternates:normal;font-variant-east-asian:normal;font-feature-settings:normal;font-variation-settings:normal;text-indent:0;text-align:start;text-decoration-line:none;text-decoration-style:solid;text-decoration-color:#000;text-transform:none;text-orientation:mixed;shape-padding:0;shape-margin:0;inline-size:0;isolation:auto;mix-blend-mode:normal" d="M4.691 3.75a.938.938 0 0 0-.666.275.938.938 0 0 0 0 1.325l6.65 6.65-6.65 6.65a.938.938 0 0 0 0 1.325.938.938 0 0 0 1.325 0l6.65-6.65 6.65 6.65a.938.938 0 0 0 1.325 0 .938.938 0 0 0 0-1.325L13.325 12l6.65-6.65a.938.938 0 0 0 0-1.325.938.938 0 0 0-1.325 0L12 10.675l-6.65-6.65a.938.938 0 0 0-.659-.275z" font-weight="400" font-family="sans-serif" white-space="normal" overflow="visible" fill="#444" stroke="none"/></svg>