<svg xmlns="http://www.w3.org/2000/svg" width="64" height="64" viewBox="0 0 24 24" stroke="#444" stroke-width="1.125" stroke-linecap="round" stroke-linejoin="round" fill="none" color="#444"><title>Copy</title><path style="line-height:normal;font-variant-ligatures:normal;font-variant-position:normal;font-variant-caps:normal;font-variant-numeric:normal;font-variant-alternates:normal;font-variant-east-asian:normal;font-feature-settings:normal;font-variation-settings:normal;text-indent:0;text-align:start;text-decoration-line:none;text-decoration-style:solid;text-decoration-color:#000;text-transform:none;text-orientation:mixed;shape-padding:0;shape-margin:0;inline-size:0;isolation:auto;mix-blend-mode:normal" d="M2.943.75a1.061 1.061 0 0 0-1.061 1.061v15.85a1.061 1.061 0 0 0 1.061 1.061 1.061 1.061 0 0 0 1.061-1.061V2.873h12.524a1.061 1.061 0 0 0 1.061-1.062A1.061 1.061 0 0 0 16.528.75zm4.529 4.528a1.061 1.061 0 0 0-1.061 1.061v15.85a1.061 1.061 0 0 0 1.061 1.061h13.585a1.061 1.061 0 0 0 1.061-1.061V6.339a1.061 1.061 0 0 0-1.061-1.061zm1.061 2.123h11.463v13.726H8.533z" font-weight="400" font-family="sans-serif" white-space="normal" overflow="visible" fill="#444" stroke="none"/></svg>