<svg xmlns="http://www.w3.org/2000/svg" width="64" height="64" viewBox="0 0 24 24" stroke="#444" stroke-width="1.125" stroke-linecap="round" stroke-linejoin="round" fill="none" color="#444"><title>History</title><path style="line-height:normal;font-variant-ligatures:normal;font-variant-position:normal;font-variant-caps:normal;font-variant-numeric:normal;font-variant-alternates:normal;font-variant-east-asian:normal;font-feature-settings:normal;font-variation-settings:normal;text-indent:0;text-align:start;text-decoration-line:none;text-decoration-style:solid;text-decoration-color:#000;text-transform:none;text-orientation:mixed;shape-padding:0;shape-margin:0;inline-size:0;isolation:auto;mix-blend-mode:normal" d="M13.028 1.778c-5.546 0-10.075 4.447-10.215 9.96l-.42-.42a.964.964 0 0 0-.676-.282.964.964 0 0 0-.685.283.964.964 0 0 0 0 1.362l2.057 2.058a.964.964 0 0 0 1.362 0L6.51 12.68a.964.964 0 0 0 0-1.362.964.964 0 0 0-1.362 0l-.406.405a8.277 8.277 0 0 1 8.287-8.017A8.279 8.279 0 0 1 21.32 12a8.279 8.279 0 0 1-8.293 8.293.964.964 0 0 0-.964.965.964.964 0 0 0 .964.964c5.634 0 10.222-4.588 10.222-10.222 0-5.634-4.588-10.222-10.222-10.222zm0 4.114a.964.964 0 0 0-.964.965V12a.964.964 0 0 0 .283.681l3.086 3.086a.964.964 0 0 0 1.362 0 .964.964 0 0 0 0-1.362L13.992 11.6V6.857a.964.964 0 0 0-.964-.965z" font-weight="400" font-family="sans-serif" white-space="normal" overflow="visible" fill="#444" stroke="none"/></svg>