<svg xmlns="http://www.w3.org/2000/svg" width="64" height="64" viewBox="0 0 24 24" stroke="#444" stroke-width="1.125" stroke-linecap="round" stroke-linejoin="round" fill="none" color="#444"><title>Turn back</title><path style="line-height:normal;font-variant-ligatures:normal;font-variant-position:normal;font-variant-caps:normal;font-variant-numeric:normal;font-variant-alternates:normal;font-variant-east-asian:normal;font-feature-settings:normal;font-variation-settings:normal;text-indent:0;text-align:start;text-decoration-line:none;text-decoration-style:solid;text-decoration-color:#000;text-transform:none;text-orientation:mixed;shape-padding:0;shape-margin:0;inline-size:0;isolation:auto;mix-blend-mode:normal" d="M13.542 4.865c-5.38 0-9.708 4.617-9.708 10.222v.759l-1.44-1.44a.964.964 0 0 0-.677-.284.964.964 0 0 0-.685.284.964.964 0 0 0 0 1.362l3.086 3.086a.964.964 0 0 0 1.362 0l3.086-3.086a.964.964 0 0 0 0-1.362.964.964 0 0 0-1.363 0l-1.44 1.44v-.759c0-4.62 3.502-8.294 7.78-8.294 4.277 0 7.779 3.673 7.779 8.294a.964.964 0 0 0 .963.964.964.964 0 0 0 .965-.964c0-5.605-4.327-10.222-9.708-10.222z" font-weight="400" font-family="sans-serif" white-space="normal" overflow="visible" fill="#444" stroke="none"/></svg>