<svg width="39" height="35" viewBox="0 0 39 35" fill="none" xmlns="http://www.w3.org/2000/svg">
<path d="M9.5 19C4.25326 19 0 14.7467 0 9.5C0 4.25334 4.25326 0 9.5 0C14.7467 0 19 4.25326 19 9.5C18.9937 14.7441 14.7441 18.9937 9.5 19ZM9.5 1.90005C5.30268 1.90005 1.90005 5.30268 1.90005 9.5C1.90005 13.6973 5.30268 17.0999 9.5 17.0999C13.6973 17.0999 17.0999 13.6973 17.0999 9.5C17.0999 5.30268 13.6973 1.90005 9.5 1.90005Z" fill="black"/>
<path d="M29.5 19C24.2533 19 20 14.7467 20 9.5C20 4.25326 24.2533 0 29.5 0C34.7467 0 39 4.25334 39 9.5C38.9938 14.7441 34.7441 18.9937 29.5 19ZM29.5 1.90005C25.3027 1.90005 21.9001 5.30268 21.9001 9.5C21.9001 13.6973 25.3027 17.0999 29.5 17.0999C33.6973 17.0999 37.0999 13.6973 37.0999 9.5C37.0999 5.30268 33.6974 1.90005 29.5 1.90005Z" fill="black"/>
<path d="M2.80002 35C2.3582 35 2 34.5896 2 34.0833V26.75C2 25.2312 3.07451 24 4.39997 24H5.19999C5.6418 24 6 24.4104 6 24.9167C6 25.423 5.6418 25.8333 5.19999 25.8333H4.39997C3.95815 25.8333 3.59996 26.2437 3.59996 26.75V34.0833C3.60003 34.5896 3.24183 35 2.80002 35Z" fill="black"/>
<path d="M5.14283 30H0.857166C0.383784 30 0 29.5523 0 29C0 28.4477 0.383784 28 0.857166 28H5.14283C5.61622 28 6 28.4477 6 29C6 29.5523 5.61622 30 5.14283 30Z" fill="black"/>
<path d="M8 35C7.44774 35 7 34.5896 7 34.0833V24.9167C7 24.4104 7.44774 24 8 24C8.55226 24 9 24.4104 9 24.9167V34.0833C9 34.5896 8.55226 35 8 35Z" fill="black"/>
<path d="M12 35C11.4477 35 11 34.6082 11 34.125V28.875C11 28.3918 11.4477 28 12 28C12.5523 28 13 28.3918 13 28.875V34.125C12.9999 34.6082 12.5523 35 12 35Z" fill="black"/>
<path d="M18.4999 34.9956C16.567 34.9956 15 33.4334 15 31.5063C15 29.5793 16.567 28.0171 18.4999 28.0171C19.7281 27.9052 20.9423 28.3461 21.8109 29.2192C22.1109 29.5969 22.0471 30.1456 21.6682 30.4448C21.2893 30.7439 20.739 30.6803 20.4388 30.3026C19.8855 29.8821 19.1918 29.6886 18.4999 29.7618C17.5335 29.7618 16.75 30.5428 16.75 31.5063C16.75 32.4699 17.5335 33.2509 18.4999 33.2509C19.2255 33.2899 19.941 33.0677 20.5159 32.6246C20.8632 32.2993 21.4078 32.3109 21.7408 32.6508C22.0743 32.99 22.0743 33.5328 21.7408 33.8719C20.844 34.6452 19.6845 35.0472 18.4999 34.9956Z" fill="black"/>
<path d="M25 35C24.4477 35 24 34.5896 24 34.0833V24.9167C24 24.4104 24.4477 24 25 24C25.5523 24 26 24.4104 26 24.9167V34.0833C26 34.5896 25.5523 35 25 35Z" fill="black"/>
<path d="M29.0021 35C28.7366 35.0004 28.4819 34.9085 28.294 34.7445L24.2936 31.2446C23.9026 30.9032 23.9021 30.3493 24.2923 30.0072C24.3391 29.9662 24.3905 29.9293 24.4457 29.8971L27.446 28.1472C27.9055 27.879 28.5265 27.9875 28.8331 28.3896C29.1397 28.7917 29.0157 29.335 28.5561 29.6032L26.5699 30.7617L29.7082 33.5073C30.0981 33.8496 30.0972 34.4036 29.7059 34.7447C29.519 34.9077 29.266 34.9994 29.0021 35Z" fill="black"/>
<path d="M33 35C32.4477 35 32 34.6082 32 34.125V28.875C32 28.3918 32.4477 28 33 28C33.5523 28 34 28.3918 34 28.875V34.125C34 34.6082 33.5523 35 33 35Z" fill="black"/>
<path d="M32.8334 33C32.3731 33 32 32.6269 32 32.1666C32 29.8655 33.8655 28 36.1666 28C36.6269 28 37 28.3731 37 28.8334C37 29.2936 36.6269 29.6667 36.1666 29.6667C34.7859 29.6667 33.6666 30.786 33.6666 32.1667C33.6667 32.627 33.2936 33 32.8334 33Z" fill="black"/>
<path d="M11.9951 26C11.4455 26 11 25.5523 11 25C11 24.4516 11.4395 24.0055 11.9851 24H12.0049C12.5545 24 13 24.4477 13 25C13 25.5523 12.5545 26 12.0049 26H11.9951Z" fill="black"/>
</svg>
