<svg width="42" height="35" viewBox="0 0 42 35" fill="none" xmlns="http://www.w3.org/2000/svg">
<path d="M42 4.15441C40.4189 4.85715 38.7482 5.32514 37.0383 5.54425C38.8418 4.45006 40.1912 2.71521 40.8306 0.668614C39.1408 1.69281 37.2927 2.41306 35.3661 2.7982C34.1866 1.5038 32.6544 0.603637 30.9691 0.214934C29.2837 -0.173769 27.5232 -0.0329965 25.917 0.61892C24.3107 1.27084 22.9331 2.40368 21.9635 3.86993C20.9939 5.33618 20.4772 7.06788 20.4809 8.83951C20.4726 9.51745 20.5386 10.1942 20.6776 10.857C17.2483 10.6881 13.8926 9.778 10.8302 8.18639C7.76774 6.59479 5.06776 4.35758 2.9071 1.62132C1.80073 3.56647 1.4606 5.87157 1.95627 8.06534C2.45194 10.2591 3.74596 12.1759 5.57377 13.4237C4.20931 13.3669 2.87682 12.983 1.68306 12.3029V12.471C1.68469 14.5098 2.3714 16.4856 3.62752 18.0658C4.88364 19.646 6.6324 20.7339 8.57924 21.1463C7.84518 21.3479 7.08775 21.446 6.32787 21.4377C5.78162 21.4468 5.23591 21.398 4.69945 21.292C5.2693 23.0322 6.3462 24.5511 7.78469 25.6435C9.22317 26.7359 10.9539 27.3492 12.7432 27.4006C9.69238 29.8407 5.93445 31.1661 2.06557 31.1666C1.37518 31.1712 0.685212 31.13 0 31.0433C3.93932 33.6432 8.52857 35.0175 13.2131 34.9998C29.0601 34.9998 37.7158 21.5498 37.7158 9.88189C37.7158 9.48586 37.7158 9.11225 37.7158 8.76105C39.4054 7.50577 40.8573 5.94462 42 4.15441Z" fill="black"/>
</svg>
