<svg width="50" height="35" viewBox="0 0 50 35" fill="none" xmlns="http://www.w3.org/2000/svg">
<path d="M44.0642 1.3279C40.2355 0.276367 24.9235 0.276367 24.9235 0.276367C24.9235 0.276367 9.61162 0.276367 5.78287 1.28799C4.75136 1.58399 3.81299 2.14129 3.05788 2.90637C2.30278 3.67145 1.7563 4.6186 1.47094 5.65685C0.45871 9.50071 0.45871 17.4693 0.45871 17.4693C0.45871 17.4693 0.45871 25.4794 1.46483 29.2895C1.74577 30.3266 2.29214 31.2718 3.04966 32.0313C3.80718 32.7907 4.74946 33.3379 5.78287 33.6185C9.65137 34.6623 24.9235 34.6623 24.9235 34.6623C24.9235 34.6623 40.2355 34.6623 44.0642 33.6507C45.0966 33.3695 46.0378 32.822 46.7942 32.0625C47.5507 31.3031 48.096 30.3583 48.3761 29.3218C49.3884 25.4825 49.3884 17.5093 49.3884 17.5093C49.3884 17.5093 49.4297 9.50071 48.3823 5.65685C48.1013 4.61976 47.5549 3.67454 46.7974 2.91511C46.0399 2.15567 45.0976 1.60848 44.0642 1.3279ZM20.0474 24.8316V10.1071L32.7813 17.4755L20.0474 24.8316Z" fill="black"/>
</svg>
