<svg width="51" height="51" viewBox="0 0 51 51" fill="none" xmlns="http://www.w3.org/2000/svg">
<circle cx="25.5" cy="25.5" r="25.5" fill="black"/>
<path d="M26.5 14C26.5 13.1716 25.8284 12.5 25 12.5C24.1716 12.5 23.5 13.1716 23.5 14H26.5ZM23.9393 37.0607C24.5251 37.6464 25.4749 37.6464 26.0607 37.0607L35.6066 27.5147C36.1924 26.9289 36.1924 25.9792 35.6066 25.3934C35.0208 24.8076 34.0711 24.8076 33.4853 25.3934L25 33.8787L16.5147 25.3934C15.9289 24.8076 14.9792 24.8076 14.3934 25.3934C13.8076 25.9792 13.8076 26.9289 14.3934 27.5147L23.9393 37.0607ZM23.5 14V36H26.5V14H23.5Z" fill="white"/>
</svg>
