<svg xmlns="http://www.w3.org/2000/svg" width="64" height="64"><path fill="#000000a8" d="M7.428 12C4.46 12 2 14.445 2 17.414v27.307c0 2.969 2.46 5.412 5.428 5.412h26.578c0-.045-.006-.088-.006-.133 0-1.335.183-2.626.494-3.867H7.428c-.831 0-1.428-.6-1.428-1.412V17.85l14.021 11.882-9.763 9.19a1.5 1.5 0 1 0 2.056 2.185l10.01-9.421L28 36.494l5.676-4.808 6.263 5.896a16.086 16.086 0 0 1 2.567-1.705l-6.527-6.145L50 17.85V34c1.383 0 2.719.195 4 .527V17.414C54 14.444 51.54 12 48.572 12zm1.029 4h39.086L28 32.56zM50 38c-6.651 0-12 5.349-12 12s5.349 12 12 12 12-5.349 12-12-5.349-12-12-12zm0 4c2.469 0 4.492 1.947 4.492 4.324s-2.023 4.36-4.492 4.36-4.492-1.95-4.492-4.327S47.53 42 50 42zm-2.264 10.104h4.493c2.057 0 3.738 1.616 3.738 3.597v.033H56v1.75a10.613 10.613 0 0 1-6 1.85c-2.229 0-4.32-.694-6-1.85v-1.783c0-1.98 1.68-3.597 3.736-3.597z"/></svg>