<svg xmlns="http://www.w3.org/2000/svg" width="64" height="64"><path fill="#000000a8" d="M32 16c-15.333 0-21.838 15.213-21.838 15.213L9.824 32l.338.787s2.488 5.794 7.992 10.23l-1.568 1.569a2 2 0 0 0 2.828 2.828l28-28a2 2 0 0 0-2.828-2.828L42.47 18.7A21.29 21.29 0 0 0 32 16zm0 4c2.896 0 5.397.644 7.54 1.633l-4.212 4.21a7 7 0 0 0-9.484 9.484l-4.899 4.9C16.96 37.18 14.84 33.21 14.254 32c.99-2.047 6.327-12 17.746-12zm16.762 3.723L45.984 26.5c2.118 2.346 3.342 4.632 3.762 5.5-.99 2.047-6.327 12-17.746 12a18.44 18.44 0 0 1-3.232-.283l-3.282 3.281A21.388 21.388 0 0 0 32 48c15.333 0 21.838-15.213 21.838-15.213l.338-.787-.338-.787s-1.604-3.726-5.076-7.49z"/></svg>