<svg xmlns="http://www.w3.org/2000/svg" width="64" height="64"><g style="display:inline;stroke-width:1.09091"><path d="M8 8.875A2.37 2.37 0 0 1 10.375 6.5h43.25A2.37 2.37 0 0 1 56 8.875v38.417a2.37 2.37 0 0 1-2.375 2.374H35.816l-9.413-9.329L8 40.422" fill="#a37800" style="stroke-width:1.09091" transform="translate(2.667 6.218) scale(.91667)"/><path d="M14.106 12.521c0-1.017.763-1.78 1.78-1.78h32.227c1.018 0 1.781.763 1.781 1.78v28.665c0 1.017-.763 1.78-1.78 1.78h-13.23l-7.04-7.038-13.738.084" fill="#fff" style="stroke-width:1.09091" transform="translate(2.667 6.218) scale(.91667)"/><path d="M56 47.376a2.37 2.37 0 0 1-2.375 2.375h-43.25A2.37 2.37 0 0 1 8 47.376V8.875A2.37 2.37 0 0 1 10.375 6.5h17.809l9.413 9.413L56 15.83" fill="#ebba16" style="stroke-width:1.09091" transform="translate(2.667 6.218) scale(.91667)"/></g></svg>