<svg xmlns="http://www.w3.org/2000/svg" width="64" height="64"><path fill="#000000a8" d="M7.6 2C4.532 2 2 4.532 2 7.6v28.8C2 39.468 4.532 42 7.6 42a2 2 0 0 0 2-2 2 2 0 0 0-2-2c-.921 0-1.6-.679-1.6-1.6V7.6C6 6.679 6.679 6 7.6 6h28.8c.921 0 1.6.679 1.6 1.6a2 2 0 0 0 2 2 2 2 0 0 0 2-2C42 4.532 39.468 2 36.4 2zm10 10c-3.068 0-5.6 2.532-5.6 5.6v28.8c0 3.068 2.532 5.6 5.6 5.6a2 2 0 0 0 2-2 2 2 0 0 0-2-2c-.921 0-1.6-.679-1.6-1.6V17.6c0-.921.679-1.6 1.6-1.6h28.8c.921 0 1.6.679 1.6 1.6a2 2 0 0 0 2 2 2 2 0 0 0 2-2c0-3.068-2.532-5.6-5.6-5.6zm10 10c-3.068 0-5.6 2.532-5.6 5.6v28.8c0 3.068 2.532 5.6 5.6 5.6h28.8c3.068 0 5.6-2.532 5.6-5.6V27.6c0-3.068-2.532-5.6-5.6-5.6zM31 37h22L42 51z"/></svg>