<svg xmlns="http://www.w3.org/2000/svg" width="64" height="64"><path fill="#000000a8" d="M23.785 2C21 2 19 4.587 19 7.441V14.5a1.5 1.5 0 0 0 1.5 1.5 1.5 1.5 0 0 0 1.5-1.5V7.441C22 5.93 22.931 5 23.785 5h33.43C58.069 5 59 5.929 59 7.441v41.92c0 1.513-.765 2.139-1.785 2.139H53.5A1.5 1.5 0 0 0 52 53a1.5 1.5 0 0 0 1.5 1.5h3.715c2.619 0 4.785-2.284 4.785-5.139V7.441C62 4.587 60 2 57.215 2zm8.715 9a1.5 1.5 0 0 0-1.5 1.5 1.5 1.5 0 0 0 1.5 1.5h16a1.5 1.5 0 0 0 1.5-1.5 1.5 1.5 0 0 0-1.5-1.5zM6.016 18c-1.025 0-2.075.362-2.84 1.107C2.41 19.852 2 20.938 2 22.016v36.002c0 1.015.359 2.07 1.11 2.832C3.86 61.612 4.94 62 6 62h40c1.015 0 2.066-.354 2.832-1.1C49.598 60.155 50 59.07 50 58V28a2 2 0 0 0-2.01-2l-16.074.074-8.047-7.535A2 2 0 0 0 22.502 18zM32.5 19a1.5 1.5 0 0 0-1.5 1.5 1.5 1.5 0 0 0 1.5 1.5h16a1.5 1.5 0 0 0 1.5-1.5 1.5 1.5 0 0 0-1.5-1.5zM6 22h15.711l8.053 7.537a2 2 0 0 0 1.377.541L46 30.01V58H6V22z"/></svg>