<svg xmlns="http://www.w3.org/2000/svg" width="64" height="64"><path fill="#000000a8" d="M8 16c-3.372 0-6 2.925-6 6.309V41.69C2 45.075 4.628 48 8 48h48c3.372 0 6-2.925 6-6.309V22.31c0-3.385-2.628-6.31-6-6.31zm0 4h25v24H8c-1.06 0-2-.919-2-2.309V22.31C6 20.919 6.94 20 8 20zm28 0h20c1.06 0 2 .919 2 2.309V41.69c0 1.39-.94 2.309-2 2.309H36V21zm11 4c-1.833 0-3.025 1.064-3.52 2.053C42.986 27.04 43 28 43 28v1h-1c-1.108 0-2 .98-2 2.2v6.6c0 1.22.892 2.2 2 2.2h10c1.108 0 2-.98 2-2.2v-6.6c0-1.22-.892-2.2-2-2.2h-1v-1s.014-.959-.48-1.947C50.025 25.064 48.833 24 47 24zm0 2c1.167 0 1.475.436 1.73.947C48.986 27.46 49 28 49 28v1h-4v-1s.014-.541.27-1.053c.255-.511.563-.947 1.73-.947zm-.049 6.5a2 2 0 0 1 .049 0 2 2 0 0 1 2 2 2 2 0 0 1-2 2 2 2 0 0 1-2-2 2 2 0 0 1 1.951-2z"/></svg>