<svg xmlns="http://www.w3.org/2000/svg" width="64" height="64"><path fill="#000000a8" d="M19 2a3 3 0 0 0-3 3v3H8c-3.248 0-6 2.599-6 5.846v42.308C2 59.401 4.752 62 8 62h48c3.248 0 6-2.599 6-5.846V13.846C62 10.599 59.248 8 56 8h-8V5a3 3 0 0 0-6 0v3H22V5a3 3 0 0 0-3-3zM6 22h52v34.154C58 57.17 57.184 58 56 58H8c-1.184 0-2-.831-2-1.846zm19 4c-3.285 0-5.915 2.027-6.879 4.668a2 2 0 1 0 3.758 1.371C22.329 30.81 23.202 30 25 30c1.342 0 3 .774 3 3.307 0 .96-1.52 4.184-3.623 7.226s-4.574 6.111-6.05 8.373c-.886 1.357.125 3.148 1.743 3.092 3.63-.127 9.89.002 9.89.002a2 2 0 1 0 .082-4s-3.462.01-6.13.002c1.242-1.68 2.368-3.186 3.757-5.195C29.884 39.6 32 36.566 32 33.307 32 28.773 28.356 26 25 26zm13 0a2 2 0 0 0 0 4h4v20a2 2 0 0 0 4 0V28a2 2 0 0 0-2-2z"/></svg>