<svg xmlns="http://www.w3.org/2000/svg" width="64" height="64"><path fill="#000000a8" d="M8 16c-3.372 0-6 2.925-6 6.309V41.69C2 45.075 4.628 48 8 48h48c3.372 0 6-2.925 6-6.309V22.31c0-3.385-2.628-6.31-6-6.31zm0 4h48c1.06 0 2 .919 2 2.309V41.69c0 1.39-.94 2.309-2 2.309H8c-1.06 0-2-.919-2-2.309V22.31C6 20.919 6.94 20 8 20zm3.5 2a1.5 1.5 0 0 0-1.5 1.5 1.5 1.5 0 0 0 1.5 1.5H14v14h-2.5a1.5 1.5 0 0 0-1.5 1.5 1.5 1.5 0 0 0 1.5 1.5h8a1.5 1.5 0 0 0 1.5-1.5 1.5 1.5 0 0 0-1.5-1.5H17V25h2.5a1.5 1.5 0 0 0 1.5-1.5 1.5 1.5 0 0 0-1.5-1.5z"/></svg>