<svg xmlns="http://www.w3.org/2000/svg" width="64" height="64"><path fill="#000000a8" d="M12 10a2 2 0 0 0-2 2v32a13.742 13.742 0 0 0 .205 2.287c.013.07.021.142.035.211.136.687.336 1.364.612 2.02.029.07.063.134.093.203.102.226.21.45.33.67.061.11.127.217.192.324.099.163.202.324.312.482.085.12.173.237.262.352.06.076.11.157.172.232.05.06.109.112.16.17a7.98 7.98 0 0 0 .676.676c.058.051.11.11.17.16.075.063.156.113.232.172.115.09.231.177.352.262.158.11.319.213.482.312.107.065.213.13.324.192.22.12.444.228.67.33.069.03.134.064.203.093.656.276 1.333.476 2.02.612.069.014.141.022.21.035a12.216 12.216 0 0 0 1.179.154c.371.03.742.051 1.109.051h32a2 2 0 0 0 2-2V36a2 2 0 0 0-2-2h-7.857l5.888-5.889a2 2 0 0 0 0-2.828L38.717 13.97a2 2 0 0 0-1.389-.586 2 2 0 0 0-1.44.586L30 19.857V12a2 2 0 0 0-2-2zm2 4h12v30c0 1.667-.429 3.189-1.287 4.219C23.855 49.249 22.556 50 20 50s-3.855-.751-4.713-1.781C14.43 47.189 14 45.667 14 44zm23.303 4.21 8.486 8.487L38.486 34H30v-8.484zM30 38h20v12H28.365c1.2-1.822 1.635-3.965 1.635-6z"/></svg>