<svg xmlns="http://www.w3.org/2000/svg" width="64" height="64"><path fill="#000000a8" d="M53.294 41.447 35.36 10.36l-.171-.256c-.854-1.452-2.392-2.477-4.1-2.733L18.535 5.748c-1.366-.17-2.733.598-3.245 1.879l-4.868 11.7a5.426 5.426 0 0 0 .341 4.868l18.106 31.43c1.452 2.476 4.697 3.415 7.174 1.963l2.306-1.366 12.981-7.516c2.562-1.537 3.416-4.697 1.964-7.259zm-33.136-23.06c-.94-1.622-.342-3.757 1.28-4.696 1.623-.94 3.759-.342 4.698 1.28.94 1.623.342 3.758-1.281 4.698-1.623.94-3.758.342-4.697-1.281z" /></svg>