<svg width="64" height="64" xmlns="http://www.w3.org/2000/svg"><g fill="#000000a8"><path d="M6.148 24.792c-1.52 0-2.703 1.318-2.703 2.842v8.731c0 1.525 1.184 2.843 2.703 2.843h21.624c1.52 0 2.703-1.318 2.703-2.842v-8.731c0-1.525-1.184-2.843-2.703-2.843zm0 1.802h21.624c.478 0 .901.414.901 1.04v8.731c0 .627-.423 1.04-.9 1.04H6.147c-.478 0-.901-.413-.901-1.04v-8.73c0-.627.423-1.041.9-1.041zm1.577.9a.676.676 0 0 0-.676.677.676.676 0 0 0 .676.675H8.85v6.308H7.725a.676.676 0 0 0-.676.675.676.676 0 0 0 .676.676h3.604a.676.676 0 0 0 .675-.676.676.676 0 0 0-.675-.675h-1.127v-6.308h1.127a.676.676 0 0 0 .675-.675.676.676 0 0 0-.675-.676ZM36.4 24.792c-1.519 0-2.703 1.318-2.703 2.842v8.731c0 1.525 1.184 2.843 2.703 2.843h21.625c1.519 0 2.703-1.318 2.703-2.842v-8.731c0-1.525-1.184-2.843-2.703-2.843zm0 1.802h21.625c.477 0 .9.414.9 1.04v8.731c0 .627-.423 1.04-.9 1.04H36.4c-.477 0-.9-.413-.9-1.04v-8.73c0-.627.423-1.041.9-1.041zm1.577.9a.676.676 0 0 0-.676.677.676.676 0 0 0 .676.675h1.126v6.308h-1.126a.676.676 0 0 0-.676.675.676.676 0 0 0 .676.676h3.604a.676.676 0 0 0 .676-.676.676.676 0 0 0-.676-.675h-1.126v-6.308h1.126a.676.676 0 0 0 .676-.675.676.676 0 0 0-.676-.676Z" style="stroke-width:.450506" transform="matrix(1.11167 0 0 1.11167 -3.568 -3.573)"/></g></svg>