<svg xmlns="http://www.w3.org/2000/svg" width="64" height="64"><path style="color:#000;font-style:normal;font-variant:normal;font-weight:400;font-stretch:normal;font-size:medium;line-height:normal;font-family:sans-serif;font-variant-ligatures:normal;font-variant-position:normal;font-variant-caps:normal;font-variant-numeric:normal;font-variant-alternates:normal;font-variant-east-asian:normal;font-feature-settings:normal;font-variation-settings:normal;text-indent:0;text-align:start;text-decoration:none;text-decoration-line:none;text-decoration-style:solid;text-decoration-color:#000;letter-spacing:normal;word-spacing:normal;text-transform:none;writing-mode:lr-tb;direction:ltr;text-orientation:mixed;dominant-baseline:auto;baseline-shift:baseline;text-anchor:start;white-space:normal;shape-padding:0;shape-margin:0;inline-size:0;clip-rule:nonzero;display:inline;overflow:visible;visibility:visible;isolation:auto;mix-blend-mode:normal;color-interpolation:sRGB;color-interpolation-filters:linearRGB;solid-color:#000;solid-opacity:1;vector-effect:none;fill:#000;fill-opacity:.66;fill-rule:nonzero;stroke:none;stroke-linecap:round;stroke-linejoin:round;stroke-miterlimit:4;stroke-dasharray:none;stroke-dashoffset:0;stroke-opacity:1;paint-order:markers stroke fill;color-rendering:auto;image-rendering:auto;shape-rendering:auto;text-rendering:auto;enable-background:accumulate;stop-color:#000" d="M8 2C4.71 2 2 4.71 2 8v48c0 3.29 2.71 6 6 6h48c3.29 0 6-2.71 6-6V8c0-3.29-2.71-6-6-6H42a2 2 0 0 0-2 2 2 2 0 0 0 2 2h14c1.143 0 2 .857 2 2v48c0 1.143-.857 2-2 2H8c-1.143 0-2-.857-2-2V8c0-1.143.857-2 2-2a2 2 0 0 0 2-2 2 2 0 0 0-2-2zm8 0a2 2 0 0 0-2 2 2 2 0 0 0 2 2h18a2 2 0 0 0 2-2 2 2 0 0 0-2-2z"/><path style="display:inline;fill:#000;fill-opacity:.33;stroke:none;stroke-width:4;stroke-linecap:round;stroke-linejoin:round;stroke-miterlimit:4;stroke-dasharray:none;stroke-opacity:.33;paint-order:markers stroke fill" d="M12 14c-1.108 0-2 .892-2 2v4c0 1.108.892 2 2 2h40c1.108 0 2-.892 2-2v-4c0-1.108-.892-2-2-2zm0 14c-1.108 0-2 .892-2 2v4c0 1.108.892 2 2 2h40c1.108 0 2-.892 2-2v-4c0-1.108-.892-2-2-2zm0 14c-1.108 0-2 .892-2 2v4c0 1.108.892 2 2 2h40c1.108 0 2-.892 2-2v-4c0-1.108-.892-2-2-2z"/></svg>