<svg xmlns="http://www.w3.org/2000/svg" width="64" height="64"><path fill="#000000a8" d="M15.285 4C12.177 4 10 6.863 10 9.941V54.06c0 3.077 2.177 5.94 5.285 5.94h33.43C51.823 60 54 57.137 54 54.059V9.94C54 6.863 51.823 4 48.715 4zm0 4h33.43C49.247 8 50 8.652 50 9.941V54.06c0 1.288-.753 1.94-1.285 1.94h-33.43C14.753 56 14 55.348 14 54.059V9.94C14 8.652 14.753 8 15.285 8zM24 16a3 3 0 0 0-3 3 3 3 0 0 0 3 3h16a3 3 0 0 0 3-3 3 3 0 0 0-3-3zm0 12a3 3 0 0 0-3 3 3 3 0 0 0 3 3h16a3 3 0 0 0 3-3 3 3 0 0 0-3-3zm0 12a3 3 0 0 0-3 3 3 3 0 0 0 3 3h10a3 3 0 0 0 3-3 3 3 0 0 0-3-3z"/></svg>