<svg xmlns="http://www.w3.org/2000/svg" viewBox="0 0 256 256" width="64" height="64">
  <!-- (c) Snip Master https://creativecommons.org/licenses/by/4.0/ https://icon-icons.com/fr/icone/crayon-mono/105944-->
  <path fill="#1d83d4" d="M2.7 255.9H256v-21.3H99.9"/>
  <path fill="#eee" d="M169 15L241.8 88 91.8 237l-36.9 8.5-49.3 9.9c-3 .8-5-1.3-4.2-4.2l9.8-49.4 8.5-36.8L142.3 41.8 169 15z"/>
  <path fill="#666" d="M142.4 41.7l72.8 72.8L91.9 237 55 245.5a85.7 85.7 0 00-43.7-43.7l8.5-36.8L142.4 41.7zm-98 206l-38.7 7.8c-3 .8-5-1.2-4.2-4.2l7.6-38.8a74 74 0 0121 14.2 74 74 0 0114.2 21zM250.3 61L195.9 5.7c-5-5-12.3-6-16.1-2.1l-28 28.7 72.9 72.8 28-28C257 73.4 256 66 250.5 61z"/>
  <path fill="#eee" d="M154.8 71.6c3.5 3.5 4.1 8.4 1.4 11l-97.1 97.1c-2.7 2.7-7.6 2-11-1.4-3.5-3.5-4-7.8-1.4-10.4l97.6-97.6c2.7-2.7 7-2.1 10.5 1.3zm30.5 30.5c3.5 3.5 4 7.8 1.4 10.4l-97.6 97.6c-2.7 2.7-7.6 2-10.4-1.4-3.5-3.5-4.1-8.4-1.4-11l97.1-97.1c2.5-2.6 7.4-1.9 10.9 1.5z"/>
</svg>
