<svg xmlns="http://www.w3.org/2000/svg" viewBox="0 0 64 64" width="64" height="64">
  <circle cx="42" cy="14.2" r="10.3" fill="#e895b7"/>
  <path d="M51.7 15.4c-1.2-.4-2.4-.6-3.8-.6-.7 0-1.3.1-2 .2-1.5.2-2.9.7-4.1 1.4-.9-1.9-2-3.6-3.5-5.1C37 10 35.4 9 33.6 8.1c-2.3-1.1-4.8-1.6-7.3-1.6-9.4 0-17 7.6-17 17v.5c-3.2 1.1-5.5 4.1-5.7 7.5-.3 4.7 3.3 8.7 8 9l3 17.5c.2 1.4 1.4 2.4 2.8 2.4h29.2c1.4 0 2.6-1 2.8-2.4l3.1-18.4c3.4-1.4 6-4.2 7.2-7.7 2.2-6.8-1.4-14.2-8-16.5" fill="#fff"/>
  <path d="M51.7 15.4c-1.2-.4-2.4-.6-3.8-.6-.7 0-1.3.1-2 .2-1.5.2-2.9.7-4.1 1.4-.9-1.9-2-3.6-3.5-5.1C37 10 35.4 9 33.6 8.1c-2.3-1.1-4.8-1.6-7.3-1.6-9.4 0-17 7.6-17 17v.5c-3.2 1.1-5.5 4.1-5.7 7.5-.3 4.7 3.3 8.7 8 9l3 17.5c.2 1.4 1.4 2.4 2.8 2.4h29.2c1.4 0 2.6-1 2.8-2.4l3.1-18.4c3.4-1.4 6-4.2 7.2-7.7 2.2-6.8-1.4-14.2-8-16.5M23.5 54.7h-3.7l-2.4-14.2h6.1v14.2zm11.3 0h-5.7V40.5h5.7v14.2zm9.4 0h-3.7V40.5h6.1l-2.4 14.2zm3.4-19.9H12.2c-1.2 0-2.3-.8-2.7-1.9-.5-1.5.2-3.1 1.7-3.6l.4-.2c2.1-.9 3.4-3 3.4-5.3v-1.1c.3-5.9 5.3-10.7 11.3-10.7 4.4 0 8.5 2.6 10.3 6.6l.2.4c1.5 2.7 4.8 3.7 7.5 2.3l.5-.2c.9-.4 1.8-.5 2.7-.5 3.9 0 7.1 3.2 7.1 7.1.1 4-3.1 7.1-7 7.1z" fill="#666"/>
</svg>