<svg xmlns="http://www.w3.org/2000/svg" viewBox="0 0 64 64" width="64" height="64">
  <path fill="#fff" d="M30 6.4L5 22v32h53.1V21z"/>
  <path fill="#fff" d="M5.1 36h26v22h-26z" />
  <path fill="#fff" d="M9 6h12v15H9z" />
  <path fill="#666" d="M60.4 21.1L34.5 5.4c-.9-.5-2-.5-2.9 0l-1.6 1V13l3-1.8 22.4 13.6v30.7H10.6V31H5v27.2C5 59.7 6.3 61 7.8 61h50.5c1.5 0 2.8-1.2 2.8-2.8V22.3c0-.5-.3-.9-.7-1.2z"  />
  <path fill="#1d83d4" d="M32.8 41.6L47.7 29l3.6 4.3L32.9 49 14.1 33.4l3.6-4.4zM14.5 28C7 28 1 22 1 14.5S7 1 14.5 1 28 7 28 14.5 22 28 14.5 28zM16 14.5v-8h-5v13h10v-5h-5z"/>
</svg>