<svg xmlns="http://www.w3.org/2000/svg" viewBox="0 0 64 64" width="64" height="64">
  <path fill="#fff" d="M29 6L3 22v33h51V22L29 6z"/>
  <path fill="#666" d="M1.7 17.1L27.6 1.4c.9-.5 2-.5 2.9 0l25.9 15.7c.4.3.7.7.7 1.2v35.9c0 1.6-1.3 2.8-2.8 2.8H3.8C2.3 57 1 55.7 1 54.2V18.3c0-.5.3-1 .7-1.2zm4.9 3.6v30.7h44.8V20.7L29 7.1 6.6 20.7z" />
  <path fill="#fff" d="M39.9 20.7h18v37.2h-18z" />
  <path fill="#d3d3d3" d="M28.7 36.6L43.6 24l3.6 4.4L28.8 44 10 28.4l3.6-4.4 15.1 12.6z"  />
  <circle fill="#E895B7" cx="54" cy="54" r="8"/>
  <circle fill="#E895B7" cx="54" cy="34" r="8"/>
</svg>