<svg xmlns="http://www.w3.org/2000/svg" viewBox="0 0 64 64" width="64" height="64">
  <path fill="#fff" d="M29 6L3 22v33h51V22L29 6z" />
  <path fill="#666" d="M1.7 17.1L27.6 1.4c.9-.5 2-.5 2.9 0l25.9 15.7c.4.3.7.7.7 1.2v35.9c0 1.6-1.3 2.8-2.8 2.8H3.8C2.3 57 1 55.7 1 54.2V18.3c0-.5.3-1 .7-1.2zm4.9 3.6v30.7h44.8V20.7L29 7.1 6.6 20.7z" />
  <path fill="#fcfcfc" d="M34.8 23.3h23.1v34.6H34.8z"/>
  <path fill="#d3d3d3" d="M28.7 36.6L43.6 24l3.6 4.4L28.8 44 10 28.4l3.6-4.4 15.1 12.6z" />
  <path fill="#1d83d4" d="M40.9 59.5C44 61.7 47.9 63 52 63s8-1.3 11.1-3.5v-3.4H40.9v3.4z"/>
  <path fill="#1d83d4" d="M63.1 58.8H40.9V56c0-3.8 3.1-6.9 6.9-6.9h8.3c3.8 0 6.9 3.1 6.9 6.9l.1 2.8z"/>
  <path fill="#888" d="M52 46.4c-4.6 0-8.3-3.7-8.3-8.3s3.7-8.4 8.3-8.4 8.3 3.7 8.3 8.3-3.7 8.4-8.3 8.4z" />
</svg>
