<svg xmlns="http://www.w3.org/2000/svg" viewBox="0 0 64 64" width="64" height="64">
  <path fill="#fff" d="M34 6L8 22v33h51V22L34 6z"/>
  <path fill="#666" d="M6.7 17.1L32.6 1.4c.9-.5 2-.5 2.9 0l25.9 15.7c.4.3.7.7.7 1.2v35.9c0 1.6-1.3 2.8-2.8 2.8H8.8C7.3 57 6 55.7 6 54.2V18.3c0-.5.3-1 .7-1.2zm4.9 3.6v30.7h44.8V20.7L34 7.1 11.6 20.7z" />
  <path fill="#fff" d="M5.9 20.7h18v37.2h-18z"/>
  <path fill="#d3d3d3" opacity=".6" d="M34.7 36.6L49.6 24l3.6 4.4L34.8 44 16 28.4l3.6-4.4 15.1 12.6z" />
  <circle fill="#e895b7" cx="9" cy="54" r="8"/>
  <circle fill="#e895b7" cx="9" cy="34" r="8"/>
  <path fill="#4CAF50"  d="M34.2 44.3c-5.8 0-10.5-4.7-10.5-10.4s4.6-10.5 10.4-10.5c2.4 0 4.7.8 6.5 2.3l-5.1 4.5 13.7 1.9V18.3l-4.8 4.2c-6.2-5.6-15.9-5.1-21.5 1.2s-5.1 15.9 1.2 21.5S40 50.3 45.6 44c1.3-1.5 2.4-3.2 3-5l-4.9-.7c-1.7 3.7-5.4 6-9.5 6z" />
</svg>