<svg xmlns="http://www.w3.org/2000/svg" viewBox="0 0 64 64" width="64" height="64">
  <path fill="#fff" d="M34 6L8 22v33h51V22L34 6z"/>
  <path fill="#666" d="M6.7 17.1L32.6 1.4c.9-.5 2-.5 2.9 0l25.9 15.7c.4.3.7.7.7 1.2v35.9c0 1.6-1.3 2.8-2.8 2.8H8.8C7.3 57 6 55.7 6 54.2V18.3c0-.5.3-1 .7-1.2zm4.9 3.6v30.7h44.8V20.7L34 7.1 11.6 20.7z" />
  <path fill="#fff" d="M5.9 20.7h18v37.2h-18z" />
  <path fill="#d3d3d3" d="M34.7 36.6L49.6 24l3.6 4.4L34.8 44 16 28.4l3.6-4.4 15.1 12.6z"  />
  <circle fill="#E895B7" cx="9" cy="54" r="8"/>
  <circle fill="#E895B7" cx="9" cy="34" r="8"/>
  <g transform="matrix(4 0 0 4 256 0)">
	<circle fill="#4CAF50" cx="-52" cy="12" r="4"/>
	<path fill="#fff" d="M-49.2,11.3c-0.1-0.1-0.2-0.1-0.3-0.1h-1.8V9.4c0-0.1,0-0.2-0.1-0.3c0-0.1-0.1-0.1-0.2-0.1h-0.8
		c-0.1,0-0.2,0-0.3,0.1c-0.1,0.1-0.1,0.2-0.1,0.3v1.8h-1.8c-0.1,0-0.2,0-0.3,0.1c-0.1,0.1-0.1,0.2-0.1,0.3v0.8c0,0.1,0,0.2,0.1,0.3
		c0.1,0.1,0.2,0.1,0.3,0.1h1.8v1.8c0,0.1,0,0.2,0.1,0.3s0.2,0.1,0.3,0.1h0.8c0.1,0,0.2,0,0.3-0.1s0.1-0.2,0.1-0.3v-1.8h1.8
		c0.1,0,0.2,0,0.3-0.1c0.1-0.1,0.1-0.2,0.1-0.3v-0.8C-49,11.5-49.1,11.4-49.2,11.3L-49.2,11.3z"/>
  </g>
</svg>