<svg width="20" height="21" viewBox="0 0 20 21" fill="none" xmlns="http://www.w3.org/2000/svg">
<path d="M19.4645 18.7324L15.8382 15.0458C17.1904 13.5045 18.0304 11.4633 18.0304 9.23467C18.0304 4.42331 14.1787 0.507568 9.44597 0.507568C4.71328 0.507568 0.861572 4.42331 0.861572 9.23467C0.861572 14.046 4.71328 17.9618 9.44597 17.9618C11.126 17.9618 12.6831 17.4619 13.9943 16.6288L17.764 20.4612C17.9894 20.6903 18.2967 20.8153 18.604 20.8153C18.9114 20.8153 19.2187 20.6903 19.444 20.4612C19.9357 19.9821 19.9357 19.2115 19.4645 18.7324ZM3.25865 9.23467C3.25865 5.77715 6.02451 2.94449 9.44597 2.94449C12.8674 2.94449 15.6128 5.77715 15.6128 9.23467C15.6128 12.6922 12.847 15.5248 9.44597 15.5248C6.04499 15.5248 3.25865 12.713 3.25865 9.23467Z" fill="white"/>
</svg>
