<svg xmlns="http://www.w3.org/2000/svg" viewBox="0 0 64 64" width="64" height="64">
  <path fill="#fff" d="M10.5 7.1v35h.8L32 58.7l22.2-16.6v-35H10.5z" />
  <path fill="#666" d="M9.2 6.5L32 1.4l22.8 5.1c1.3.3 2.2 1.4 2.2 2.7V37c0 5.6-2.8 10.8-7.4 13.9L32 62.6 14.4 50.8C9.8 47.7 7 42.5 7 37V9.2c0-1.3.9-2.4 2.2-2.7zm3.4 5V37c0 3.7 1.9 7.2 4.9 9.2L32 55.9l14.5-9.7c3.1-2.1 4.9-5.5 4.9-9.2V11.5L32 7.1l-19.4 4.4z"/>
  <path fill="#1d83d4" d="M32 45.1c-6.2 0-11.2-5-11.2-11.3 0-3.1 1.3-6.1 3.5-8.2 2-1.9 7-5.3 6.2-12.8 9 6 13.5 12 4.5 21 1.5 0 3.8 0 7.5-3.7.4 1.2.8 2.4.8 3.7 0 6.3-5.1 11.3-11.3 11.3z"/>
</svg>