<svg xmlns="http://www.w3.org/2000/svg" viewBox="0 0 64 64" width="64" height="64">
  <path fill="#666" d="m30.5 16.2 3.6 3.6c7 7 7 18.2 0 25.2l-.9.9c-7 7-18.2 7-25.2 0S1 27.7 8 20.7l3.6 3.6c-5 4.9-5 13-.1 18s13 5 18 .1l.1-.1.9-.9c5-5 5-13 0-18l-3.6-3.6 3.6-3.6zm17.1 15.3L44 27.9c5-4.9 5-13 .1-18s-13-5-18-.1l-.1.1-.9.9c-5 5-5 13 0 18l3.6 3.6-3.6 3.6-3.6-3.6c-7-7-7-18.2 0-25.2l.9-.9c7-7 18.2-7 25.2 0s6.9 18.2 0 25.2z" />
  <path fill="#1d83d4" d="M53 35.2c4.6 0 8.3 3.8 8.3 9 0 10.5-11.3 16.5-15 18.8-3-1.8-10.6-5.9-13.7-12.8h7l1.4-2.3 4.5 7.5 3.1-5.2h5.2v-3H47l-1.4 2.3L41 42l-3.1 5.2h-6.3c-.2-1-.3-2-.3-3 0-5.3 3.8-9 8.3-9 2.8 0 5.3 1.5 6.8 3 1.4-1.5 3.8-3 6.6-3z" />
</svg>
