<svg version="1.1" xmlns="http://www.w3.org/2000/svg"
	 viewBox="0 0 64 64" width="64" height="64">
<g fill="#666">
	<path d="M43.7,52.5c-2.3,0-4.9-0.1-7.4-0.7c-8.2-2.1-14.3-9.2-15.1-17.7C21,33.2,21,32.4,21,31.5c-0.2-4.8-4.3-8.9-9.2-9
		c-1.6,0-3.3,0-4.9-0.1c-2.6-0.2-4.8-2.7-4.7-5.5c0.1-2.7,2.1-5,4.8-5.2c4.1-0.3,8.1-0.2,12,1.4c7,3,11.2,8.2,12.6,15.7
		c0.2,1.2,0.3,2.5,0.3,3.7c0.2,4.9,4.5,9,9.3,9c1.7,0,3.5,0,5.2,0c0.8,0,0.8-0.1,0.9-0.8c0-1.1,0-2.2,0.1-3.3c0.1-1,1.1-1.6,2.1-1.3
		c0.3,0.1,0.5,0.2,0.8,0.4c3.7,3,7.3,6.1,11,9.1c0.9,0.8,0.9,2,0,2.7c-3.6,3.1-7.3,6.1-11,9.1c-1.3,1-2.7,0.5-2.9-1.2
		c-0.1-1,0-2-0.1-3c0-0.8-0.1-0.9-0.9-0.9C45.6,52.5,44.8,52.5,43.7,52.5z"/>
	<path d="M34.6,25.4c-0.1-0.3-0.2-0.5-0.3-0.7c-1-3-2.5-5.7-4.6-8.2c-0.6-0.7-0.6-0.8,0.2-1.3c3.3-2.2,6.8-3.4,10.7-3.5
		c1.9-0.1,3.8-0.1,5.7-0.1c0.8,0,0.9-0.1,0.9-0.9c0-0.8,0-1.5,0-2.3c0-0.3,0-0.6,0.1-0.9c0.3-1.4,1.7-1.9,2.8-1
		c1.2,0.9,2.3,1.9,3.5,2.9c2.5,2.1,4.9,4.1,7.4,6.2c1.2,1,1.2,2.1,0,3.1c-3.6,3-7.1,5.9-10.6,8.9c-0.2,0.2-0.4,0.3-0.6,0.4
		c-1,0.5-2.2-0.1-2.3-1.2c-0.1-0.8-0.1-1.7-0.1-2.6c0-0.4,0-0.7,0-1.1c0-0.3-0.2-0.6-0.5-0.6c-2.2,0-4.4-0.1-6.6,0.1
		c-1.9,0.1-3.5,1-4.9,2.2C35.1,25,34.9,25.1,34.6,25.4z"/>
	<path d="M18.3,38.8c0.1,0.3,0.2,0.5,0.2,0.7c1,3.1,2.5,5.8,4.7,8.2c0.5,0.6,0.5,0.6-0.1,1.1c-3.3,2.3-6.9,3.5-10.9,3.6
		c-1.7,0-3.5,0.1-5.2,0c-2.6-0.2-4.8-2.7-4.8-5.4c0.1-2.8,2.1-5.1,4.7-5.3c1.5-0.1,3-0.1,4.4-0.1c2.3,0,4.4-0.7,6.2-2.2
		C17.8,39.2,18,39,18.3,38.8z"/>
</g>
</svg>
